<svg width="240" height="240" viewBox="0 0 240 240" fill="none" xmlns="http://www.w3.org/2000/svg" role="img" aria-labelledby="title desc">
  <title id="title">Kakeibo App Logo</title>
  <desc id="desc">Original geometric logo with wallet, coin, and growth chart motif</desc>
  <defs>
    <linearGradient id="bg" x1="32" y1="24" x2="208" y2="216" gradientUnits="userSpaceOnUse">
      <stop stop-color="#0F172A"/>
      <stop offset="1" stop-color="#1E293B"/>
    </linearGradient>
    <linearGradient id="accent" x1="64" y1="72" x2="176" y2="176" gradientUnits="userSpaceOnUse">
      <stop stop-color="#22D3EE"/>
      <stop offset="1" stop-color="#14B8A6"/>
    </linearGradient>
    <linearGradient id="coin" x1="138" y1="58" x2="178" y2="98" gradientUnits="userSpaceOnUse">
      <stop stop-color="#FDE68A"/>
      <stop offset="1" stop-color="#F59E0B"/>
    </linearGradient>
  </defs>

  <rect x="20" y="20" width="200" height="200" rx="52" fill="url(#bg)"/>

  <rect x="56" y="88" width="128" height="96" rx="20" fill="#0B1220" stroke="#334155" stroke-width="4"/>
  <rect x="56" y="88" width="128" height="28" rx="14" fill="url(#accent)"/>

  <circle cx="158" cy="78" r="22" fill="url(#coin)" stroke="#FCD34D" stroke-width="3"/>
  <path d="M152 78H164M158 72V84" stroke="#7C2D12" stroke-width="3" stroke-linecap="round"/>

  <path d="M76 162L102 136L120 150L152 118" stroke="#22D3EE" stroke-width="7" stroke-linecap="round" stroke-linejoin="round"/>
  <path d="M144 118H158V132" stroke="#22D3EE" stroke-width="7" stroke-linecap="round" stroke-linejoin="round"/>

  <rect x="76" y="132" width="12" height="30" rx="6" fill="#38BDF8" opacity="0.9"/>
  <rect x="96" y="124" width="12" height="38" rx="6" fill="#22D3EE" opacity="0.9"/>
  <rect x="116" y="140" width="12" height="22" rx="6" fill="#2DD4BF" opacity="0.9"/>
</svg>
